<?xml version="1.0" encoding="UTF-8"?>
<!DOCTYPE svg PUBLIC "-//W3C//DTD SVG 1.1//EN" "http://www.w3.org/Graphics/SVG/1.1/DTD/svg11.dtd">
<!-- Creator: CorelDRAW X8 -->
<svg xmlns="http://www.w3.org/2000/svg" xml:space="preserve" width="600px" height="200px" version="1.1" style="shape-rendering:geometricPrecision; text-rendering:geometricPrecision; image-rendering:optimizeQuality; fill-rule:evenodd; clip-rule:evenodd"
viewBox="0 0 600 200"
 xmlns:xlink="http://www.w3.org/1999/xlink">
 <defs>
  <style type="text/css">
   <![CDATA[
    .fil1 {fill:#CCCCCC}
    .fil2 {fill:#CCCCCC;fill-rule:nonzero}
    .fil5 {fill:url(#id0)}
    .fil3 {fill:url(#id1)}
    .fil4 {fill:url(#id2);fill-rule:nonzero}
    .fil0 {fill:url(#id3);fill-rule:nonzero}
    .fil6 {fill:url(#id4);fill-rule:nonzero}
   ]]>
  </style>
  <linearGradient id="id0" gradientUnits="userSpaceOnUse" x1="148.998" y1="199.998" x2="149.999" y2="98.9976">
   <stop offset="0" style="stop-opacity:1; stop-color:#6699FF"/>
   <stop offset="1" style="stop-opacity:1; stop-color:#9999FF"/>
  </linearGradient>
  <linearGradient id="id1" gradientUnits="userSpaceOnUse" xlink:href="#id0" x1="149" y1="199.998" x2="150" y2="98.9976">
  </linearGradient>
  <linearGradient id="id2" gradientUnits="userSpaceOnUse" xlink:href="#id0" x1="149.001" y1="199.998" x2="150" y2="98.9976">
  </linearGradient>
  <linearGradient id="id3" gradientUnits="userSpaceOnUse" xlink:href="#id0" x1="227.667" y1="199.998" x2="227.778" y2="98.9976">
  </linearGradient>
  <linearGradient id="id4" gradientUnits="userSpaceOnUse" xlink:href="#id0" x1="404.076" y1="199.997" x2="404.093" y2="98.9988">
  </linearGradient>
 </defs>
 <g id="Layer_x0020_1">
  <metadata id="CorelCorpID_0Corel-Layer"/>
  <path class="fil0" d="M250 200c-28,0 -50,-22 -50,-50 0,-28 22,-50 50,-50 28,0 50,22 50,50 0,28 -22,50 -50,50zm-13 -28c1,0 2,1 2,2 0,1 -1,2 -2,2l-11 0c-1,0 -2,-1 -2,-2l0 -11c0,-1 1,-2 2,-2 1,0 2,1 2,2l0 6 19 -19 -19 -19 0 6c0,1 -1,2 -2,2 -1,0 -2,-1 -2,-2l0 -11c0,-1 1,-2 2,-2l11 0c1,0 2,1 2,2 0,1 -1,2 -2,2l-6 0 19 19 19 -19 -6 0c-1,0 -2,-1 -2,-2 0,-1 1,-2 2,-2l11 0c1,0 2,1 2,2l0 11c0,1 -1,2 -2,2 -1,0 -2,-1 -2,-2l0 -6 -19 19 19 19 0 -6c0,-1 1,-2 2,-2 1,0 2,1 2,2l0 11c0,1 -1,2 -2,2l-11 0c-1,0 -2,-1 -2,-2 0,-1 1,-2 2,-2l6 0 -19 -19 -19 19 6 0zm13 24c25,0 46,-21 46,-46 0,-25 -21,-46 -46,-46 -25,0 -46,21 -46,46 0,25 21,46 46,46z"/>
  <path class="fil1" d="M250 100c-28,0 -50,-22 -50,-50 0,-28 22,-50 50,-50 28,0 50,22 50,50 0,28 -22,50 -50,50zm-13 -28c1,0 2,1 2,2 0,1 -1,2 -2,2l-11 0c-1,0 -2,-1 -2,-2l0 -11c0,-1 1,-2 2,-2 1,0 2,1 2,2l0 6 19 -19 -19 -19 0 6c0,1 -1,2 -2,2 -1,0 -2,-1 -2,-2l0 -11c0,-1 1,-2 2,-2l11 0c1,0 2,1 2,2 0,1 -1,2 -2,2l-6 0 19 19 19 -19 -6 0c-1,0 -2,-1 -2,-2 0,-1 1,-2 2,-2l11 0c1,0 2,1 2,2l0 11c0,1 -1,2 -2,2 -1,0 -2,-1 -2,-2l0 -6 -19 19 19 19 0 -6c0,-1 1,-2 2,-2 1,0 2,1 2,2l0 11c0,1 -1,2 -2,2l-11 0c-1,0 -2,-1 -2,-2 0,-1 1,-2 2,-2l6 0 -19 -19 -19 19 6 0zm13 24c25,0 46,-21 46,-46 0,-25 -21,-46 -46,-46 -25,0 -46,21 -46,46 0,25 21,46 46,46z"/>
  <path class="fil1" d="M50 100c-28,0 -50,-22 -50,-50 0,-28 22,-50 50,-50 28,0 50,22 50,50 0,28 -22,50 -50,50zm-29 -48c-1,0 -2,-1 -2,-2 0,-1 1,-2 2,-2l27 0 0 -27c0,-1 1,-2 2,-2 1,0 2,1 2,2l0 27 27 0c1,0 2,1 2,2 0,1 -1,2 -2,2l-27 0 0 27c0,1 -1,2 -2,2 -1,0 -2,-1 -2,-2l0 -27 -27 0zm29 44c25,0 46,-21 46,-46 0,-25 -21,-46 -46,-46 -25,0 -46,21 -46,46 0,25 21,46 46,46z"/>
  <path class="fil2" d="M121 52c-1,0 -2,-1 -2,-2 0,-1 1,-2 2,-2l58 0c1,0 2,1 2,2 0,1 -1,2 -2,2l-58 0zm29 48c-28,0 -50,-22 -50,-50 0,-28 22,-50 50,-50 28,0 50,22 50,50 0,28 -22,50 -50,50zm0 -4c25,0 46,-21 46,-46 0,-25 -21,-46 -46,-46 -25,0 -46,21 -46,46 0,25 21,46 46,46z"/>
  <path class="fil1" d="M350 100c-28,0 -50,-22 -50,-50 0,-28 22,-50 50,-50 28,0 50,22 50,50 0,28 -22,50 -50,50zm-25 -72c-1,-1 -1,-2 0,-3 1,-1 2,-1 3,0l22 22 22 -22c1,-1 2,-1 3,0 1,1 1,2 0,3l-22 22 22 22c1,1 1,2 0,3 -1,1 -2,1 -3,0l-22 -22 -22 22c-1,1 -2,1 -3,0 -1,-1 -1,-2 0,-3l22 -22 -22 -22zm25 68c25,0 46,-21 46,-46 0,-25 -21,-46 -46,-46 -25,0 -46,21 -46,46 0,25 21,46 46,46z"/>
  <path class="fil3" d="M50 200c-28,0 -50,-22 -50,-50 0,-28 22,-50 50,-50 28,0 50,22 50,50 0,28 -22,50 -50,50zm-29 -48c-1,0 -2,-1 -2,-2 0,-1 1,-2 2,-2l27 0 0 -27c0,-1 1,-2 2,-2 1,0 2,1 2,2l0 27 27 0c1,0 2,1 2,2 0,1 -1,2 -2,2l-27 0 0 27c0,1 -1,2 -2,2 -1,0 -2,-1 -2,-2l0 -27 -27 0zm29 44c25,0 46,-21 46,-46 0,-25 -21,-46 -46,-46 -25,0 -46,21 -46,46 0,25 21,46 46,46z"/>
  <path class="fil4" d="M121 152c-1,0 -2,-1 -2,-2 0,-1 1,-2 2,-2l58 0c1,0 2,1 2,2 0,1 -1,2 -2,2l-58 0zm29 48c-28,0 -50,-22 -50,-50 0,-28 22,-50 50,-50 28,0 50,22 50,50 0,28 -22,50 -50,50zm0 -4c25,0 46,-21 46,-46 0,-25 -21,-46 -46,-46 -25,0 -46,21 -46,46 0,25 21,46 46,46z"/>
  <path class="fil5" d="M350 200c-28,0 -50,-22 -50,-50 0,-28 22,-50 50,-50 28,0 50,22 50,50 0,28 -22,50 -50,50zm-25 -72c-1,-1 -1,-2 0,-3 1,-1 2,-1 3,0l22 22 22 -22c1,-1 2,-1 3,0 1,1 1,2 0,3l-22 22 22 22c1,1 1,2 0,3 -1,1 -2,1 -3,0l-22 -22 -22 22c-1,1 -2,1 -3,0 -1,-1 -1,-2 0,-3l22 -22 -22 -22zm25 68c25,0 46,-21 46,-46 0,-25 -21,-46 -46,-46 -25,0 -46,21 -46,46 0,25 21,46 46,46z"/>
  <path class="fil2" d="M450 100c-28,0 -50,-22 -50,-50 0,-28 22,-50 50,-50 28,0 50,22 50,50 0,28 -22,50 -50,50zm11 -58l-2 -5 2 -2 0 0 -5 -9 -11 6 0 7c0,1 -1,2 -2,2 -1,0 -2,-1 -2,-2l0 -5 -16 9 6 9c5,2 12,3 19,3 0,0 1,0 1,0l0 -1 -5 -1 -1 -2c0,-2 1,-4 2,-6 1,-1 2,-3 4,-4l3 0 3 3c1,0 1,-1 2,-1 0,-1 1,-1 2,-1zm4 -8c1,0 1,0 2,0 2,0 4,0 6,1l1 2 -1 5c0,0 1,0 2,1 0,0 1,1 1,1l4 -3 3 0c1,1 2,3 3,4 1,2 2,4 3,6l-2 2 -5 1c1,1 1,2 1,3 0,0 0,1 -1,2l5 1 1 2c0,2 -1,4 -2,6 -1,2 -2,3 -3,4l-3 0 -4 -3c0,1 -1,1 -1,1 -1,1 -2,1 -2,1l1 5 -1 2c-2,1 -4,1 -6,1 -2,0 -4,0 -6,-1l-2 -2 2 -5c-1,0 -2,0 -2,-1 0,0 -1,0 -1,0l-4 2 0 0 -1 0 -10 6c-1,1 -2,1 -2,0l0 0 -20 -34c-1,-1 0,-3 1,-3l0 0 19 -11 0 -16c0,-2 1,-2 2,-2 1,0 2,0 2,2l0 13 11 -6c1,0 2,0 2,1l7 12zm-16 36c-1,0 -1,-1 -2,-2 -1,-2 -2,-4 -2,-6l1 -2 5 -1 0 0c0,0 -1,0 -1,0 -6,0 -12,-1 -17,-2l10 17 6 -4zm15 -32l1 5 -1 2c-1,0 -2,1 -3,1 -1,1 -2,1 -3,2l-3 0 -3 -3c0,1 -1,1 -1,2 -1,1 -1,2 -2,3l5 1 1 2c0,1 0,3 0,4 0,1 0,2 0,3l-1 2 -5 1c1,1 1,2 2,3 0,1 1,1 1,2l4 -3 2 0c1,1 2,1 3,2 1,0 2,1 3,1l1 2 -1 5c1,0 2,0 3,0 1,0 2,0 3,0l-2 -5 2 -2c1,0 2,-1 3,-1 1,-1 1,-1 2,-2l3 0 3 3c1,-1 1,-1 2,-2 0,-1 1,-2 1,-3l-4 -1 -2 -2c0,-1 1,-2 1,-3 0,-1 -1,-3 -1,-4l2 -2 4 -1c0,-1 -1,-2 -1,-3 -1,-1 -1,-1 -2,-2l-3 3 -3 0c-1,-1 -1,-1 -2,-2 -1,0 -2,-1 -3,-1l-2 -2 2 -5c-1,0 -2,0 -3,0 -1,0 -2,0 -3,0zm5 28c-2,1 -5,0 -7,-1 -2,-1 -4,-3 -5,-6 0,-3 0,-5 1,-7 2,-2 4,-4 6,-5 3,0 5,0 8,1 2,1 3,3 4,6 1,3 0,5 -1,7 -1,2 -3,4 -6,5zm-1 -4c2,0 3,-1 4,-3 0,-1 1,-2 0,-4 0,-1 -1,-3 -2,-3 -2,-1 -3,-1 -5,-1 -1,1 -2,1 -3,3 -1,1 -1,2 -1,4 1,1 2,3 3,3 1,1 3,1 4,1zm-49 10c-11,0 -3,-15 -1,-22 0,-1 0,-1 1,-1 1,0 1,0 2,1 1,7 9,22 -2,22zm31 24c25,0 46,-21 46,-46 0,-25 -21,-46 -46,-46 -25,0 -46,21 -46,46 0,25 21,46 46,46z"/>
  <path class="fil1" d="M550 100c-28,0 -50,-22 -50,-50 0,-28 22,-50 50,-50 28,0 50,22 50,50 0,28 -22,50 -50,50zm-18 -49c-1,0 -1,-2 0,-2 8,-8 15,-16 23,-24 1,-1 2,-1 3,0 1,1 1,2 0,3l-22 22 22 22c1,1 1,2 0,3 -1,1 -2,1 -3,0 -8,-8 -15,-16 -23,-24zm18 45c25,0 46,-21 46,-46 0,-25 -21,-46 -46,-46 -25,0 -46,21 -46,46 0,25 21,46 46,46z"/>
  <path class="fil1" d="M550 200c-28,0 -50,-22 -50,-50 0,-28 22,-50 50,-50 28,0 50,22 50,50 0,28 -22,50 -50,50zm18 -49c1,0 1,-2 0,-2 -8,-8 -15,-16 -23,-24 -1,-1 -2,-1 -3,0 -1,1 -1,2 0,3l22 22 -22 22c-1,1 -1,2 0,3 1,1 2,1 3,0 8,-8 15,-16 23,-24zm-18 45c25,0 46,-21 46,-46 0,-25 -21,-46 -46,-46 -25,0 -46,21 -46,46 0,25 21,46 46,46z"/>
  <path class="fil6" d="M450 200c-28,0 -50,-22 -50,-50 0,-28 22,-50 50,-50 28,0 50,22 50,50 0,28 -22,50 -50,50zm11 -58l-2 -5 2 -2 0 0 -5 -9 -11 6 0 7c0,1 -1,2 -2,2 -1,0 -2,-1 -2,-2l0 -5 -16 9 6 9c5,2 12,3 19,3 0,0 1,0 1,0l0 -1 -5 -1 -1 -2c0,-2 1,-4 2,-6 1,-1 2,-3 4,-4l3 0 3 3c1,0 1,-1 2,-1 0,-1 1,-1 2,-1zm4 -8c1,0 1,0 2,0 2,0 4,0 6,1l1 2 -1 5c0,0 1,0 2,1 0,0 1,1 1,1l4 -3 3 0c1,1 2,3 3,4 1,2 2,4 3,6l-2 2 -5 1c1,1 1,2 1,3 0,0 0,1 -1,2l5 1 1 2c0,2 -1,4 -2,6 -1,2 -2,3 -3,4l-3 0 -4 -3c0,1 -1,1 -1,1 -1,1 -2,1 -2,1l1 5 -1 2c-2,1 -4,1 -6,1 -2,0 -4,0 -6,-1l-2 -2 2 -5c-1,0 -2,0 -2,-1 0,0 -1,0 -1,0l-4 2 0 0 -1 0 -10 6c-1,1 -2,1 -2,0l0 0 -20 -34c-1,-1 0,-3 1,-3l0 0 19 -11 0 -16c0,-2 1,-2 2,-2 1,0 2,0 2,2l0 13 11 -6c1,0 2,0 2,1l7 12zm-16 36c-1,0 -1,-1 -2,-2 -1,-2 -2,-4 -2,-6l1 -2 5 -1 0 0c0,0 -1,0 -1,0 -6,0 -12,-1 -17,-2l10 17 6 -4zm15 -32l1 5 -1 2c-1,0 -2,1 -3,1 -1,1 -2,1 -3,2l-3 0 -3 -3c0,1 -1,1 -1,2 -1,1 -1,2 -2,3l5 1 1 2c0,1 0,3 0,4 0,1 0,2 0,3l-1 2 -5 1c1,1 1,2 2,3 0,1 1,1 1,2l4 -3 2 0c1,1 2,1 3,2 1,0 2,1 3,1l1 2 -1 5c1,0 2,0 3,0 1,0 2,0 3,0l-2 -5 2 -2c1,0 2,-1 3,-1 1,-1 1,-1 2,-2l3 0 3 3c1,-1 1,-1 2,-2 0,-1 1,-2 1,-3l-4 -1 -2 -2c0,-1 1,-2 1,-3 0,-1 -1,-3 -1,-4l2 -2 4 -1c0,-1 -1,-2 -1,-3 -1,-1 -1,-1 -2,-2l-3 3 -3 0c-1,-1 -1,-1 -2,-2 -1,0 -2,-1 -3,-1l-2 -2 2 -5c-1,0 -2,0 -3,0 -1,0 -2,0 -3,0zm5 28c-2,1 -5,0 -7,-1 -2,-1 -4,-3 -5,-6 0,-3 0,-5 1,-7 2,-2 4,-4 6,-5 3,0 5,0 8,1 2,1 3,3 4,6 1,3 0,5 -1,7 -1,2 -3,4 -6,5zm-1 -4c2,0 3,-1 4,-3 0,-1 1,-2 0,-4 0,-1 -1,-3 -2,-3 -2,-1 -3,-1 -5,-1 -1,1 -2,1 -3,3 -1,1 -1,2 -1,4 1,1 2,3 3,3 1,1 3,1 4,1zm-49 10c-11,0 -3,-15 -1,-22 0,-1 0,-1 1,-1 1,0 1,0 2,1 1,7 9,22 -2,22zm31 24c25,0 46,-21 46,-46 0,-25 -21,-46 -46,-46 -25,0 -46,21 -46,46 0,25 21,46 46,46z"/>
 </g>
</svg>
